# Blender v2.79 (sub 0) OBJ File: 'gameBoard.blend'
# www.blender.org
mtllib gameBoard.mtl
o Cube.001
v 5.161368 0.068766 -4.747346
v -5.161366 0.068766 -4.747348
v -5.161368 0.068764 4.747345
v 5.161368 0.068764 4.747346
v 5.161370 -0.068764 -4.747344
v 5.161365 -0.068766 4.747349
v -5.161370 -0.068766 4.747344
v -5.161367 -0.068764 -4.747346
vt 0.000000 0.000000
vt 0.000000 1.000000
vt 1.000000 1.000000
vt 1.000000 0.000000
vt 0.000000 0.000000
vt 0.000000 1.000000
vt 1.000000 1.000000
vt 1.000000 0.000000
vt 0.000000 1.000000
vt 1.000000 1.000000
vt 1.000000 0.000000
vt 0.000000 0.000000
vt 0.000000 1.000000
vt 1.000000 0.000000
vt 0.000000 0.000000
vt 1.000000 1.000000
vt 1.000000 0.000000
vt 0.000000 1.000000
vt 1.000000 1.000000
vt 1.000000 0.000000
vn -0.0000 1.0000 0.0000
vn 0.0000 -1.0000 -0.0000
vn 1.0000 -0.0000 0.0000
vn -0.0000 0.0000 1.0000
vn -1.0000 0.0000 -0.0000
vn 0.0000 -0.0000 -1.0000
usemtl Material.001
s 1
f 1/1/1 2/2/1 3/3/1 4/4/1
f 5/5/2 6/6/2 7/7/2 8/8/2
f 1/1/3 4/9/3 6/10/3 5/11/3
f 4/12/4 3/13/4 7/7/4 6/14/4
f 3/15/5 2/2/5 8/16/5 7/17/5
f 5/5/6 8/18/6 2/19/6 1/20/6
